<svg id="46b46aa5-3b60-478a-9d52-5e2f53cea200" data-name="Layer 1" xmlns="http://www.w3.org/2000/svg" width="922.19" height="351.01" viewBox="0 0 922.19 351.01">
  <title>Banner web_2Mesa de trabajo 3</title>
  <g>
    <polygon points="201 245.85 208.36 245.85 208.36 197.12 224.86 197.12 224.86 190.93 184.5 190.93 184.5 197.12 201 197.12 201 245.85"/>
    <path d="M237.84,219.89q2-5.19,4.81-7.24a9.28,9.28,0,0,1,5.4-2.05,11,11,0,0,1,2.09.17,15.77,15.77,0,0,1,1.85.5l1.34-6.36a9.25,9.25,0,0,0-2-.63,12.28,12.28,0,0,0-2.39-.21,10.54,10.54,0,0,0-6.45,2.26,19.15,19.15,0,0,0-5.19,6.2h-.16l-.67-7.45h-5.95v40.77h7.29Z"/>
    <path d="M282.55,241l.67,4.86h5.94V221a24.89,24.89,0,0,0-1.46-9,12.08,12.08,0,0,0-4.65-5.86,14.73,14.73,0,0,0-8.21-2.09,23.54,23.54,0,0,0-6.19.8,28.77,28.77,0,0,0-5.44,2,42.12,42.12,0,0,0-4.44,2.51l2.84,4.94a40.22,40.22,0,0,1,5.49-3,15.8,15.8,0,0,1,6.57-1.39,8,8,0,0,1,5,1.43,7.11,7.11,0,0,1,2.52,3.72,17.74,17.74,0,0,1,.67,4.9Q269,221.41,263,225a11.31,11.31,0,0,0-6,10.22,12,12,0,0,0,1.55,6.24,10.2,10.2,0,0,0,4.27,4,13.38,13.38,0,0,0,6.15,1.39,15.46,15.46,0,0,0,7.12-1.72,34.49,34.49,0,0,0,6.28-4.15Zm-.67-5.19a28.55,28.55,0,0,1-5.36,3.85,11.32,11.32,0,0,1-5.44,1.34,8.17,8.17,0,0,1-4.9-1.46q-2.06-1.47-2.05-4.81a6.69,6.69,0,0,1,1.67-4.48,12.46,12.46,0,0,1,5.57-3.31,54.77,54.77,0,0,1,10.51-2.18Z"/>
    <path d="M308.75,216.46a34.59,34.59,0,0,1,5.4-4.56,9.88,9.88,0,0,1,5.49-1.55q3.93,0,5.69,2.51c1.17,1.68,1.76,4.38,1.76,8.12v24.87h7.28V220.06q0-7.78-3-11.89t-9.5-4.1a14.15,14.15,0,0,0-7.45,2,32,32,0,0,0-6.2,4.9h-.17l-.67-5.86h-5.94v40.77h7.28Z"/>
    <path d="M357.9,241.25a14.81,14.81,0,0,1-6.36-1.34,29.37,29.37,0,0,1-5.53-3.44l-3.51,4.69a24.8,24.8,0,0,0,6.86,4.06,22,22,0,0,0,8.37,1.64,18.17,18.17,0,0,0,8.21-1.68,12.14,12.14,0,0,0,5.06-4.44,11.3,11.3,0,0,0,1.72-6.11,9.43,9.43,0,0,0-1.88-6.15,13.85,13.85,0,0,0-4.73-3.69q-2.85-1.38-5.7-2.47c-1.56-.55-3-1.13-4.39-1.71a11.44,11.44,0,0,1-3.35-2.1,4.07,4.07,0,0,1-1.3-3.14,5.33,5.33,0,0,1,1.8-4q1.8-1.72,5.57-1.72a11.34,11.34,0,0,1,4.9,1,24.41,24.41,0,0,1,4.31,2.63l3.43-4.68a24.23,24.23,0,0,0-5.61-3.23,18.33,18.33,0,0,0-7.2-1.38q-6.61,0-10.38,3.35a10.66,10.66,0,0,0-3.77,8.29,8.76,8.76,0,0,0,1.84,5.69,14.35,14.35,0,0,0,4.61,3.69,44.35,44.35,0,0,0,5.61,2.42q2.26.84,4.39,1.8a11.83,11.83,0,0,1,3.52,2.35,4.71,4.71,0,0,1,1.38,3.47,5.63,5.63,0,0,1-2,4.32Q361.84,241.25,357.9,241.25Z"/>
    <path d="M399.77,245.14A34.07,34.07,0,0,0,406,241h.17l.67,4.86h5.95V221a24.67,24.67,0,0,0-1.47-9,12.08,12.08,0,0,0-4.65-5.86,14.69,14.69,0,0,0-8.2-2.09,23.62,23.62,0,0,0-6.2.8,29.3,29.3,0,0,0-5.44,2,44.24,44.24,0,0,0-4.44,2.51l2.85,4.94a40.68,40.68,0,0,1,5.48-3,15.81,15.81,0,0,1,6.58-1.39,8,8,0,0,1,5,1.43,7.1,7.1,0,0,1,2.51,3.72,17.37,17.37,0,0,1,.67,4.9q-12.89,1.35-18.88,4.94a11.31,11.31,0,0,0-6,10.22,12.13,12.13,0,0,0,1.54,6.24,10.31,10.31,0,0,0,4.27,4,13.46,13.46,0,0,0,6.16,1.39A15.49,15.49,0,0,0,399.77,245.14Zm-12-10.42a6.7,6.7,0,0,1,1.68-4.48,12.42,12.42,0,0,1,5.56-3.31,54.94,54.94,0,0,1,10.51-2.18V235.8a28.23,28.23,0,0,1-5.36,3.85,11.3,11.3,0,0,1-5.44,1.34,8.19,8.19,0,0,1-4.9-1.46C388.48,238.55,387.79,237,387.79,234.72Z"/>
    <path d="M429,243.05q2.6,3.81,9.12,3.81a17.79,17.79,0,0,0,4-.47,33.47,33.47,0,0,0,3.69-1l-1.34-5.44a17.26,17.26,0,0,1-2.27.75,9.15,9.15,0,0,1-2.34.33q-3.44,0-4.86-2.05a9.93,9.93,0,0,1-1.42-5.73V211h11v-5.94h-11V193.69h-6l-.83,11.39-6.37.41V211h6v22.1Q426.39,239.24,429,243.05Z"/>
    <path d="M465,246.19l-.92-5.53-.88.13a6.26,6.26,0,0,1-.63,0,1.72,1.72,0,0,1-1.34-.71,3.66,3.66,0,0,1-.59-2.31V186.24h-7.28v51.07a15.48,15.48,0,0,0,.75,5.19,6.34,6.34,0,0,0,2.43,3.22,7.6,7.6,0,0,0,4.35,1.14,12.85,12.85,0,0,0,2.43-.21A13,13,0,0,0,465,246.19Z"/>
    <path d="M491,245.14a34.07,34.07,0,0,0,6.27-4.15h.17l.67,4.86H504V221a24.67,24.67,0,0,0-1.47-9,12.08,12.08,0,0,0-4.65-5.86,14.69,14.69,0,0,0-8.2-2.09,23.62,23.62,0,0,0-6.2.8,29.3,29.3,0,0,0-5.44,2,44.24,44.24,0,0,0-4.44,2.51l2.85,4.94a40.68,40.68,0,0,1,5.48-3,15.81,15.81,0,0,1,6.58-1.39,8,8,0,0,1,5,1.43,7.1,7.1,0,0,1,2.51,3.72,17.37,17.37,0,0,1,.67,4.9q-12.89,1.35-18.88,4.94a11.31,11.31,0,0,0-6,10.22,12.13,12.13,0,0,0,1.54,6.24,10.31,10.31,0,0,0,4.27,4,13.46,13.46,0,0,0,6.16,1.39A15.49,15.49,0,0,0,491,245.14Zm-12-10.42a6.7,6.7,0,0,1,1.68-4.48,12.42,12.42,0,0,1,5.56-3.31,54.94,54.94,0,0,1,10.51-2.18V235.8a28.23,28.23,0,0,1-5.36,3.85,11.3,11.3,0,0,1-5.44,1.34,8.19,8.19,0,0,1-4.9-1.46C479.66,238.55,479,237,479,234.72Z"/>
    <path d="M535.15,210.35c2.63,0,4.52.84,5.7,2.51s1.75,4.38,1.75,8.12v24.87h7.29V220.06q0-7.78-3-11.89c-2-2.73-5.15-4.1-9.51-4.1a14.17,14.17,0,0,0-7.45,2,32.31,32.31,0,0,0-6.2,4.9h-.16l-.67-5.86H517v40.77h7.29V216.46a34.59,34.59,0,0,1,5.4-4.56A9.87,9.87,0,0,1,535.15,210.35Z"/>
    <path d="M579.44,246.39a33.47,33.47,0,0,0,3.69-1l-1.34-5.44a17.6,17.6,0,0,1-2.26.75,9.29,9.29,0,0,1-2.35.33c-2.29,0-3.9-.68-4.85-2.05a9.92,9.92,0,0,1-1.43-5.73V211h11v-5.94h-11V193.69h-6L564,205.08l-6.37.41V211h6v22.1a17.31,17.31,0,0,0,2.6,9.93q2.6,3.81,9.12,3.81A17.79,17.79,0,0,0,579.44,246.39Z"/>
    <rect x="591.33" y="205.08" width="7.28" height="40.78"/>
    <path d="M595,187.58a4.63,4.63,0,0,0-3.35,1.29,4.43,4.43,0,0,0-1.34,3.31,4.5,4.5,0,0,0,1.34,3.39,4.67,4.67,0,0,0,8-3.39,4.52,4.52,0,0,0-1.3-3.31A4.62,4.62,0,0,0,595,187.58Z"/>
    <path d="M633.78,239.65a11.68,11.68,0,0,1-5.19,1.18,11,11,0,0,1-6.4-1.93,12.65,12.65,0,0,1-4.36-5.36,19.4,19.4,0,0,1-1.55-8,18.77,18.77,0,0,1,1.64-8.08,13.12,13.12,0,0,1,4.43-5.41,11.23,11.23,0,0,1,6.49-1.92,9.15,9.15,0,0,1,4.23,1,16.76,16.76,0,0,1,3.64,2.56l3.69-4.78a21.23,21.23,0,0,0-5-3.35,15.55,15.55,0,0,0-6.9-1.42,19.68,19.68,0,0,0-9.76,2.51,19.1,19.1,0,0,0-7.24,7.33,22.94,22.94,0,0,0-2.76,11.6,24.21,24.21,0,0,0,2.55,11.55,18,18,0,0,0,6.87,7.28,18.94,18.94,0,0,0,9.75,2.52,19.15,19.15,0,0,0,7.08-1.34,20,20,0,0,0,6.15-3.86l-3.1-4.85A17.65,17.65,0,0,1,633.78,239.65Z"/>
    <path d="M694.61,192.47a34.1,34.1,0,0,0-10.76-1.54H667.94v54.92h7.37v-21.6h8.88a28.21,28.21,0,0,0,10.55-1.84,15.48,15.48,0,0,0,7.2-5.61,16.6,16.6,0,0,0,2.59-9.63q0-6-2.63-9.59A14.55,14.55,0,0,0,694.61,192.47Zm-.84,23.16q-3.39,2.67-10.5,2.67h-8V196.87h7.62c4.75,0,8.3.75,10.68,2.26s3.56,4.19,3.56,8S696,213.84,693.77,215.63Z"/>
    <path d="M732.92,204.07a10.54,10.54,0,0,0-6.45,2.26,19.15,19.15,0,0,0-5.19,6.2h-.17l-.67-7.45H714.5v40.77h7.28v-26q2-5.19,4.82-7.24a9.23,9.23,0,0,1,5.4-2.05,11.07,11.07,0,0,1,2.09.17,15.65,15.65,0,0,1,1.84.5l1.34-6.36a8.9,8.9,0,0,0-2-.63A12.18,12.18,0,0,0,732.92,204.07Z"/>
    <path d="M747.15,187.58a4.63,4.63,0,0,0-3.35,1.29,4.43,4.43,0,0,0-1.34,3.31,4.5,4.5,0,0,0,1.34,3.39,5,5,0,0,0,6.74,0,4.55,4.55,0,0,0,1.3-3.39,4.48,4.48,0,0,0-1.3-3.31A4.6,4.6,0,0,0,747.15,187.58Z"/>
    <rect x="743.47" y="205.08" width="7.28" height="40.78"/>
    <path d="M780.89,227.93c-.62,2-1.24,4-1.88,6.07s-1.25,4-1.8,6h-.34L775,234c-.64-2-1.27-4.06-1.89-6.07l-7.53-22.85h-7.45l14.65,40.77h8.45l14.32-40.77h-7.11Z"/>
    <path d="M826.44,206.16a14.73,14.73,0,0,0-8.21-2.09,23.49,23.49,0,0,0-6.19.8,29.13,29.13,0,0,0-5.45,2,42.94,42.94,0,0,0-4.43,2.51l2.84,4.94a40.22,40.22,0,0,1,5.49-3,15.77,15.77,0,0,1,6.57-1.39,8,8,0,0,1,5,1.43,7.11,7.11,0,0,1,2.52,3.72,17.74,17.74,0,0,1,.67,4.9q-12.9,1.35-18.89,4.94a11.31,11.31,0,0,0-6,10.22,12,12,0,0,0,1.55,6.24,10.2,10.2,0,0,0,4.27,4,13.38,13.38,0,0,0,6.15,1.39,15.46,15.46,0,0,0,7.12-1.72,34.49,34.49,0,0,0,6.28-4.15h.16l.67,4.86h5.95V221a24.67,24.67,0,0,0-1.47-9A12,12,0,0,0,826.44,206.16Zm-1.17,29.64a28.55,28.55,0,0,1-5.36,3.85,11.34,11.34,0,0,1-5.45,1.34,8.16,8.16,0,0,1-4.89-1.46q-2.05-1.47-2.05-4.81a6.69,6.69,0,0,1,1.67-4.48,12.46,12.46,0,0,1,5.57-3.31,54.61,54.61,0,0,1,10.51-2.18Z"/>
    <path d="M867,239.65a11.68,11.68,0,0,1-5.19,1.18,11,11,0,0,1-6.41-1.93,12.56,12.56,0,0,1-4.35-5.36,19.4,19.4,0,0,1-1.55-8,18.77,18.77,0,0,1,1.64-8.08,13.12,13.12,0,0,1,4.43-5.41A11.2,11.2,0,0,1,862,210.1a9.21,9.21,0,0,1,4.23,1,16.76,16.76,0,0,1,3.64,2.56l3.69-4.78a21.23,21.23,0,0,0-5-3.35,15.55,15.55,0,0,0-6.9-1.42,19.68,19.68,0,0,0-9.76,2.51,19,19,0,0,0-7.24,7.33,22.94,22.94,0,0,0-2.76,11.6,24.21,24.21,0,0,0,2.55,11.55,18,18,0,0,0,6.87,7.28,18.94,18.94,0,0,0,9.75,2.52,19.15,19.15,0,0,0,7.08-1.34,20,20,0,0,0,6.15-3.86l-3.1-4.85A17.65,17.65,0,0,1,867,239.65Z"/>
    <path d="M907.23,205.08l-7,22.18c-.56,1.84-1.12,3.76-1.67,5.74s-1.15,3.92-1.76,5.82h-.34c-.61-2-1.25-3.92-1.92-5.91s-1.34-3.86-2-5.65l-8.12-22.18h-7.45l16.32,40.77-.92,2.93a16.12,16.12,0,0,1-3.39,6.11,7.31,7.31,0,0,1-5.65,2.43,6.5,6.5,0,0,1-1.59-.21l-1.51-.37-1.42,5.69c.72.22,1.48.42,2.26.58a12.15,12.15,0,0,0,2.59.26,12.91,12.91,0,0,0,7.08-1.85,15.74,15.74,0,0,0,4.9-5.06,39.9,39.9,0,0,0,3.51-7.33l15.24-43.95Z"/>
    <path d="M216.28,276.45a34.14,34.14,0,0,0-10.76-1.55H189.61v54.93H197v-21.6h8.87a28.41,28.41,0,0,0,10.55-1.84,15.48,15.48,0,0,0,7.2-5.61,16.65,16.65,0,0,0,2.6-9.63q0-6-2.64-9.59A14.57,14.57,0,0,0,216.28,276.45Zm-.84,23.15q-3.39,2.68-10.51,2.68h-8V280.85h7.62q7.11,0,10.67,2.26t3.56,8Q218.83,296.93,215.44,299.6Z"/>
    <path d="M260.36,290.44a15.93,15.93,0,0,0-8.88-2.39,16.83,16.83,0,0,0-8.91,2.59,19.48,19.48,0,0,0-6.87,7.41,26.15,26.15,0,0,0,0,22.9,18.59,18.59,0,0,0,7.08,7.33,19.45,19.45,0,0,0,9.88,2.55,21.37,21.37,0,0,0,7.49-1.25,29.89,29.89,0,0,0,6.07-3l-2.6-4.68a25.06,25.06,0,0,1-4.68,2.3,15.82,15.82,0,0,1-5.36.88,13.84,13.84,0,0,1-6.79-1.72,12.69,12.69,0,0,1-5-5.15,16.56,16.56,0,0,1-1.82-6.95h27.49a14.18,14.18,0,0,0,.25-1.84c0-.72.08-1.45.08-2.18a25.16,25.16,0,0,0-1.88-10.09A14.89,14.89,0,0,0,260.36,290.44Zm-20.23,15.61a16.75,16.75,0,0,1,1.52-5.48,11.89,11.89,0,0,1,4.39-5.11,10.49,10.49,0,0,1,5.53-1.63,8.87,8.87,0,0,1,7.32,3.14q2.57,3.13,2.56,9.08Z"/>
    <path d="M297.12,288.05a10.54,10.54,0,0,0-6.45,2.26,19.15,19.15,0,0,0-5.19,6.2h-.17l-.67-7.46H278.7v40.78H286v-26q2-5.19,4.81-7.24a9.21,9.21,0,0,1,5.4-2.05,11.11,11.11,0,0,1,2.1.17,16.19,16.19,0,0,1,1.84.5l1.34-6.36a9.07,9.07,0,0,0-2-.63A12.18,12.18,0,0,0,297.12,288.05Z"/>
    <path d="M329.69,323.63a11.69,11.69,0,0,1-5.2,1.18,11.06,11.06,0,0,1-6.4-1.93,12.56,12.56,0,0,1-4.35-5.36,19.29,19.29,0,0,1-1.55-8,18.8,18.8,0,0,1,1.63-8.08,13.25,13.25,0,0,1,4.44-5.4,11.2,11.2,0,0,1,6.49-1.92,9.13,9.13,0,0,1,4.22,1,17,17,0,0,1,3.65,2.55l3.68-4.77a21.37,21.37,0,0,0-5-3.35,15.49,15.49,0,0,0-6.91-1.42,19.61,19.61,0,0,0-9.75,2.51,19.13,19.13,0,0,0-7.25,7.33,22.93,22.93,0,0,0-2.76,11.59A24.25,24.25,0,0,0,307.2,321a18,18,0,0,0,6.87,7.28,19.85,19.85,0,0,0,16.83,1.17,19.83,19.83,0,0,0,6.15-3.85L334,320.79A18.15,18.15,0,0,1,329.69,323.63Z"/>
    <path d="M369.71,290.44a15.93,15.93,0,0,0-8.88-2.39,16.89,16.89,0,0,0-8.92,2.59,19.45,19.45,0,0,0-6.86,7.41,26.15,26.15,0,0,0,0,22.9,18.56,18.56,0,0,0,7.07,7.33,19.47,19.47,0,0,0,9.88,2.55,21.38,21.38,0,0,0,7.5-1.25,29.89,29.89,0,0,0,6.07-3l-2.6-4.68a25.14,25.14,0,0,1-4.69,2.3,15.78,15.78,0,0,1-5.36.88,13.83,13.83,0,0,1-6.78-1.72,12.69,12.69,0,0,1-5-5.15,16.56,16.56,0,0,1-1.82-6.95h27.48a12.63,12.63,0,0,0,.25-1.84c.06-.72.09-1.45.09-2.18a25,25,0,0,0-1.89-10.09A14.81,14.81,0,0,0,369.71,290.44Zm-20.23,15.61a16.75,16.75,0,0,1,1.51-5.48,12,12,0,0,1,4.4-5.11,10.45,10.45,0,0,1,5.52-1.63,8.87,8.87,0,0,1,7.33,3.14q2.55,3.13,2.55,9.08Z"/>
    <path d="M416.18,290.6a15.75,15.75,0,0,0-15.66-.88,30.75,30.75,0,0,0-6.11,4h-.17l-.67-4.69h-5.95v57.86h7.29V333.18l-.25-7a25.86,25.86,0,0,0,5.61,3.44,13.75,13.75,0,0,0,5.61,1.25,15.59,15.59,0,0,0,8.62-2.59A18.59,18.59,0,0,0,421,320.7a26.27,26.27,0,0,0,2.47-11.89,30.12,30.12,0,0,0-1.84-11A15.65,15.65,0,0,0,416.18,290.6Zm-1.68,26.8a12.57,12.57,0,0,1-4.1,5.44,9.78,9.78,0,0,1-5.86,1.88,12.94,12.94,0,0,1-4.44-.92,17.45,17.45,0,0,1-5.19-3.18v-21a24.91,24.91,0,0,1,5.52-4.1,11,11,0,0,1,5-1.34,9.49,9.49,0,0,1,6.07,1.84,10.75,10.75,0,0,1,3.39,5.15A25,25,0,0,1,416,308.9,21.67,21.67,0,0,1,414.5,317.4Z"/>
    <path d="M450.84,324.64a9.29,9.29,0,0,1-2.35.33q-3.42,0-4.85-2.05a10,10,0,0,1-1.43-5.73V295h11v-5.95h-11V277.67h-6l-.84,11.38-6.36.42V295h6v22.1a17.28,17.28,0,0,0,2.6,9.92q2.59,3.81,9.13,3.81a17.63,17.63,0,0,0,4-.46,33.47,33.47,0,0,0,3.69-1l-1.34-5.45A17.05,17.05,0,0,1,450.84,324.64Z"/>
    <rect x="462.31" y="289.05" width="7.28" height="40.78"/>
    <path d="M466,271.55a4.62,4.62,0,0,0-3.34,1.3,4.39,4.39,0,0,0-1.34,3.31,4.47,4.47,0,0,0,1.34,3.39,4.67,4.67,0,0,0,8-3.39,4.48,4.48,0,0,0-1.3-3.31A4.59,4.59,0,0,0,466,271.55Z"/>
    <path d="M508,290.56a18.11,18.11,0,0,0-9.25-2.51,18.34,18.34,0,0,0-16.37,9.84,26.7,26.7,0,0,0,0,23.15,18.42,18.42,0,0,0,16.37,9.79,18,18,0,0,0,9.25-2.51,18.79,18.79,0,0,0,7-7.28,26.34,26.34,0,0,0,0-23.15A18.8,18.8,0,0,0,508,290.56Zm.76,27a12.08,12.08,0,0,1-4,5.36,10.38,10.38,0,0,1-12.06,0,12.38,12.38,0,0,1-4-5.36,20.88,20.88,0,0,1-1.42-8,21.2,21.2,0,0,1,1.42-8.08,12.45,12.45,0,0,1,4-5.4,10.43,10.43,0,0,1,12.06,0,12.15,12.15,0,0,1,4,5.4,21.81,21.81,0,0,1,1.38,8.08A21.48,21.48,0,0,1,508.74,317.52Z"/>
    <path d="M548.3,288.05a14.15,14.15,0,0,0-7.45,2,32.33,32.33,0,0,0-6.2,4.89h-.17l-.67-5.86h-5.94v40.78h7.28V300.44a34.59,34.59,0,0,1,5.4-4.56,9.8,9.8,0,0,1,5.49-1.55q3.93,0,5.69,2.51t1.76,8.12v24.87h7.28V304q0-7.79-3-11.89T548.3,288.05Z"/>
    <path d="M592.59,308.77q-2.85-1.38-5.7-2.47-2.34-.84-4.39-1.71a11.44,11.44,0,0,1-3.35-2.1,4.08,4.08,0,0,1-1.3-3.14,5.31,5.31,0,0,1,1.8-4q1.8-1.72,5.57-1.72a11.3,11.3,0,0,1,4.9,1,23.83,23.83,0,0,1,4.31,2.63l3.43-4.69a24.58,24.58,0,0,0-5.61-3.22,18.26,18.26,0,0,0-7.2-1.38q-6.62,0-10.38,3.35a10.65,10.65,0,0,0-3.77,8.29,8.71,8.71,0,0,0,1.85,5.69,14,14,0,0,0,4.6,3.68,44.42,44.42,0,0,0,5.61,2.43c1.51.56,3,1.16,4.4,1.8a11.71,11.71,0,0,1,3.51,2.35,4.71,4.71,0,0,1,1.38,3.47,5.63,5.63,0,0,1-2,4.31c-1.32,1.21-3.28,1.8-5.91,1.8a14.67,14.67,0,0,1-6.36-1.34,28.81,28.81,0,0,1-5.53-3.43L569,325.14a24.8,24.8,0,0,0,6.86,4.06,22,22,0,0,0,8.38,1.63,18.16,18.16,0,0,0,8.2-1.67,12.3,12.3,0,0,0,5.07-4.44,11.38,11.38,0,0,0,1.71-6.11,9.37,9.37,0,0,0-1.88-6.15A13.76,13.76,0,0,0,592.59,308.77Z"/>
    <path d="M111.16,90.77a16.81,16.81,0,1,0-24.87,14.76l-12,39.85h40.16l-12-39.85A16.82,16.82,0,0,0,111.16,90.77Z"/>
    <path d="M94.35,35.17h10v-7.5h-10a63.1,63.1,0,0,0-63.1,63.1v1.62h7.51V90.77h0A55.66,55.66,0,0,1,94.35,35.17Z"/>
    <path d="M104.39,58v-7.5h-10A40.25,40.25,0,0,0,54.1,90.77v1.62h7.5V90.77A32.79,32.79,0,0,1,94.35,58Z"/>
    <path d="M94.35,11.76V11.6h10V4.1h-10v.16A86.51,86.51,0,0,0,7.85,90.77h0v1.62h7.51V90.77A79.09,79.09,0,0,1,94.35,11.76Z"/>
    <polygon points="188.71 143.73 218.74 143.73 218.74 29.13 258.85 29.13 258.85 4.64 148.82 4.64 148.82 29.13 188.71 29.13 188.71 143.73"/>
    <path d="M280.77,143.73,290.44,109h45L345,143.73h31.78L331.39,4.64H295.67L250.08,143.73Zm19.94-71.57q3.06-10.65,6-22.37T312.33,27h.87q3.07,11.09,6,22.79t6,22.37l3.93,14.27H296.73Z"/>
    <path d="M427.39,95.16H446a76.51,76.51,0,0,0,28-4.9A43.48,43.48,0,0,0,494,75q7.46-10.32,7.45-26.3,0-16.62-7.56-26.2A41.52,41.52,0,0,0,473.64,8.79a91.44,91.44,0,0,0-28.49-4.15H397.37V143.73h30Zm0-67.31h15.78q14.25,0,21.59,4.69t7.34,16.19q0,11.51-6.9,17.36t-21.15,5.85H427.39Z"/>
    <path d="M548.38,95.16H567A76.45,76.45,0,0,0,595,90.26,43.51,43.51,0,0,0,615,75q7.44-10.32,7.45-26.3,0-16.62-7.56-26.2A41.5,41.5,0,0,0,594.62,8.79a91.4,91.4,0,0,0-28.49-4.15H518.35V143.73h30Zm0-67.31h15.78q14.25,0,21.59,4.69t7.34,16.19q0,11.51-6.9,17.36T565,71.94H548.38Z"/>
  </g>
</svg>
