<svg id="c482978e-24fb-4671-9e2b-b3ae6c2bbfbf" data-name="Layer 1" xmlns="http://www.w3.org/2000/svg" width="1482.73" height="182.71" viewBox="0 0 1482.73 182.71">
  <defs>
    <style>
      .a02f276e-3471-4ad5-ae34-317b8193d48b {
        fill: #fff;
      }
    </style>
  </defs>
  <title>Banner web_2Mesa de trabajo 2 copia</title>
  <g>
    <polygon class="a02f276e-3471-4ad5-ae34-317b8193d48b" points="716.05 69.33 723.88 69.33 723.88 17.54 741.41 17.54 741.41 10.96 698.52 10.96 698.52 17.54 716.05 17.54 716.05 69.33"/>
    <path class="a02f276e-3471-4ad5-ae34-317b8193d48b" d="M755.2,41.74q2.14-5.51,5.12-7.69a9.74,9.74,0,0,1,5.74-2.18,12.37,12.37,0,0,1,2.22.17,16.4,16.4,0,0,1,2,.54l1.42-6.76a9.46,9.46,0,0,0-2.09-.67,12.88,12.88,0,0,0-2.53-.22,11.24,11.24,0,0,0-6.86,2.4,20.48,20.48,0,0,0-5.51,6.58h-.18L753.78,26h-6.32V69.33h7.74Z"/>
    <path class="a02f276e-3471-4ad5-ae34-317b8193d48b" d="M802.72,64.17l.71,5.16h6.32V42.9a26.19,26.19,0,0,0-1.56-9.52,12.74,12.74,0,0,0-4.94-6.23,15.6,15.6,0,0,0-8.72-2.22,25.14,25.14,0,0,0-6.58.84A31.55,31.55,0,0,0,782.16,28a47.09,47.09,0,0,0-4.71,2.67l3,5.25a44.06,44.06,0,0,1,5.83-3.16,16.78,16.78,0,0,1,7-1.47,8.54,8.54,0,0,1,5.34,1.52,7.6,7.6,0,0,1,2.67,4,18.67,18.67,0,0,1,.71,5.2q-13.71,1.42-20.07,5.25T775.58,58a12.84,12.84,0,0,0,1.65,6.63,10.79,10.79,0,0,0,4.53,4.27,14.24,14.24,0,0,0,6.54,1.47,16.36,16.36,0,0,0,7.57-1.83,36.47,36.47,0,0,0,6.67-4.4ZM802,58.65a30.18,30.18,0,0,1-5.7,4.09,12.1,12.1,0,0,1-5.78,1.43,8.73,8.73,0,0,1-5.21-1.56c-1.45-1-2.18-2.74-2.18-5.12a7.18,7.18,0,0,1,1.78-4.76,13.42,13.42,0,0,1,5.92-3.51A57.65,57.65,0,0,1,802,46.91Z"/>
    <path class="a02f276e-3471-4ad5-ae34-317b8193d48b" d="M830.57,38.1a36.51,36.51,0,0,1,5.74-4.85,10.44,10.44,0,0,1,5.83-1.65c2.79,0,4.8.89,6.05,2.67s1.87,4.66,1.87,8.63V69.33h7.74V41.92c0-5.51-1-9.73-3.16-12.63s-5.47-4.36-10.1-4.36A15,15,0,0,0,836.62,27a34.47,34.47,0,0,0-6.58,5.2h-.18L829.15,26h-6.32V69.33h7.74Z"/>
    <path class="a02f276e-3471-4ad5-ae34-317b8193d48b" d="M882.81,64.44A15.69,15.69,0,0,1,876,63a30.91,30.91,0,0,1-5.87-3.65l-3.74,5a26.38,26.38,0,0,0,7.3,4.31,23.36,23.36,0,0,0,8.9,1.74,19.47,19.47,0,0,0,8.72-1.78,12.94,12.94,0,0,0,5.38-4.72,12,12,0,0,0,1.83-6.49,10,10,0,0,0-2-6.55,14.67,14.67,0,0,0-5-3.91c-2-1-4-1.85-6-2.63-1.67-.59-3.22-1.2-4.68-1.82a12.17,12.17,0,0,1-3.56-2.22,4.37,4.37,0,0,1-1.37-3.34,5.67,5.67,0,0,1,1.91-4.23c1.27-1.21,3.25-1.82,5.92-1.82A12.06,12.06,0,0,1,888.9,32a25.94,25.94,0,0,1,4.58,2.8l3.65-5a26.26,26.26,0,0,0-6-3.43,19.57,19.57,0,0,0-7.65-1.46q-7,0-11,3.56a11.3,11.3,0,0,0-4,8.8,9.27,9.27,0,0,0,2,6.06,15.13,15.13,0,0,0,4.89,3.91,47.68,47.68,0,0,0,6,2.58c1.61.6,3.16,1.23,4.68,1.91a12.61,12.61,0,0,1,3.73,2.5,5,5,0,0,1,1.47,3.69,6,6,0,0,1-2.09,4.58Q887,64.44,882.81,64.44Z"/>
    <path class="a02f276e-3471-4ad5-ae34-317b8193d48b" d="M927.3,68.57a36.47,36.47,0,0,0,6.67-4.4h.18l.71,5.16h6.32V42.9a26.19,26.19,0,0,0-1.56-9.52,12.74,12.74,0,0,0-4.94-6.23A15.6,15.6,0,0,0,926,24.93a25.14,25.14,0,0,0-6.58.84A31.55,31.55,0,0,0,913.59,28a47.09,47.09,0,0,0-4.71,2.67l3,5.25a44.06,44.06,0,0,1,5.83-3.16,16.78,16.78,0,0,1,7-1.47,8.54,8.54,0,0,1,5.34,1.52,7.6,7.6,0,0,1,2.67,4,18.67,18.67,0,0,1,.71,5.2q-13.71,1.42-20.07,5.25T907,58a12.84,12.84,0,0,0,1.65,6.63,10.84,10.84,0,0,0,4.53,4.27,14.24,14.24,0,0,0,6.54,1.47A16.36,16.36,0,0,0,927.3,68.57ZM914.57,57.49a7.18,7.18,0,0,1,1.78-4.76,13.42,13.42,0,0,1,5.92-3.51,57.65,57.65,0,0,1,11.17-2.31V58.65a30.18,30.18,0,0,1-5.7,4.09A12.1,12.1,0,0,1,922,64.17a8.73,8.73,0,0,1-5.21-1.56C915.3,61.57,914.57,59.87,914.57,57.49Z"/>
    <path class="a02f276e-3471-4ad5-ae34-317b8193d48b" d="M958.35,66.35q2.76,4.05,9.7,4.05a19.36,19.36,0,0,0,4.27-.49,38.83,38.83,0,0,0,3.92-1.11L974.82,63a17.9,17.9,0,0,1-2.41.8,9.6,9.6,0,0,1-2.49.36q-3.64,0-5.16-2.18a10.58,10.58,0,0,1-1.51-6.1V32.31h11.66V26H963.25V13.89h-6.41L956,26l-6.76.45v5.87h6.41V55.8Q955.6,62.3,958.35,66.35Z"/>
    <path class="a02f276e-3471-4ad5-ae34-317b8193d48b" d="M996.62,69.69l-1-5.88-.94.14a4.68,4.68,0,0,1-.66,0,1.81,1.81,0,0,1-1.43-.76,3.86,3.86,0,0,1-.62-2.44V6h-7.74V60.25a16.26,16.26,0,0,0,.8,5.52,6.73,6.73,0,0,0,2.58,3.43,8.12,8.12,0,0,0,4.63,1.2,12.72,12.72,0,0,0,4.36-.71Z"/>
    <path class="a02f276e-3471-4ad5-ae34-317b8193d48b" d="M1024.2,68.57a36.54,36.54,0,0,0,6.68-4.4h.17l.72,5.16h6.31V42.9a26.42,26.42,0,0,0-1.55-9.52,12.8,12.8,0,0,0-4.94-6.23,15.63,15.63,0,0,0-8.72-2.22,25.21,25.21,0,0,0-6.59.84A31.73,31.73,0,0,0,1010.5,28a48.48,48.48,0,0,0-4.72,2.67l3,5.25a43.43,43.43,0,0,1,5.83-3.16,16.7,16.7,0,0,1,7-1.47,8.5,8.5,0,0,1,5.34,1.52,7.54,7.54,0,0,1,2.67,4,18.67,18.67,0,0,1,.71,5.2q-13.69,1.42-20.06,5.25T1003.91,58a12.84,12.84,0,0,0,1.65,6.63,10.87,10.87,0,0,0,4.54,4.27,14.24,14.24,0,0,0,6.54,1.47A16.29,16.29,0,0,0,1024.2,68.57Zm-12.72-11.08a7.13,7.13,0,0,1,1.78-4.76,13.37,13.37,0,0,1,5.91-3.51,57.81,57.81,0,0,1,11.17-2.31V58.65a29.82,29.82,0,0,1-5.69,4.09,12.11,12.11,0,0,1-5.79,1.43,8.7,8.7,0,0,1-5.2-1.56C1012.2,61.57,1011.48,59.87,1011.48,57.49Z"/>
    <path class="a02f276e-3471-4ad5-ae34-317b8193d48b" d="M1071.19,31.6q4.17,0,6,2.67t1.86,8.63V69.33h7.75V41.92c0-5.51-1.06-9.73-3.16-12.63s-5.47-4.36-10.1-4.36a15,15,0,0,0-7.92,2.09,34.84,34.84,0,0,0-6.59,5.2h-.17l-.72-6.23h-6.31V69.33h7.74V38.1a36.06,36.06,0,0,1,5.74-4.85A10.44,10.44,0,0,1,1071.19,31.6Z"/>
    <path class="a02f276e-3471-4ad5-ae34-317b8193d48b" d="M1118.26,69.91a38.61,38.61,0,0,0,3.91-1.11L1120.75,63a17.29,17.29,0,0,1-2.4.8,9.6,9.6,0,0,1-2.49.36q-3.66,0-5.17-2.18a10.58,10.58,0,0,1-1.51-6.1V32.31h11.66V26h-11.66V13.89h-6.41l-.88,12.1-6.77.45v5.87h6.41V55.8q0,6.5,2.76,10.55t9.7,4.05A19.5,19.5,0,0,0,1118.26,69.91Z"/>
    <rect class="a02f276e-3471-4ad5-ae34-317b8193d48b" x="1130.9" y="25.99" width="7.74" height="43.34"/>
    <path class="a02f276e-3471-4ad5-ae34-317b8193d48b" d="M1134.81,7.4a4.92,4.92,0,0,0-3.56,1.38,4.67,4.67,0,0,0-1.42,3.51,4.77,4.77,0,0,0,1.42,3.6,4.92,4.92,0,0,0,3.56,1.38,4.73,4.73,0,0,0,5-5,4.75,4.75,0,0,0-1.38-3.51A4.87,4.87,0,0,0,1134.81,7.4Z"/>
    <path class="a02f276e-3471-4ad5-ae34-317b8193d48b" d="M1176,62.74a12.4,12.4,0,0,1-5.52,1.25,11.72,11.72,0,0,1-6.81-2.05,13.36,13.36,0,0,1-4.62-5.69,20.56,20.56,0,0,1-1.65-8.54,19.93,19.93,0,0,1,1.74-8.59,13.94,13.94,0,0,1,4.71-5.74,11.94,11.94,0,0,1,6.9-2.05,9.73,9.73,0,0,1,4.49,1,17.53,17.53,0,0,1,3.87,2.71L1183,30a22.33,22.33,0,0,0-5.3-3.56,16.4,16.4,0,0,0-7.34-1.51A20.82,20.82,0,0,0,1160,27.6a20.2,20.2,0,0,0-7.7,7.78,24.35,24.35,0,0,0-2.94,12.33A25.75,25.75,0,0,0,1152.12,60a19.21,19.21,0,0,0,7.29,7.74A21.05,21.05,0,0,0,1177.3,69a21.15,21.15,0,0,0,6.54-4.09l-3.29-5.16A18.9,18.9,0,0,1,1176,62.74Z"/>
    <path class="a02f276e-3471-4ad5-ae34-317b8193d48b" d="M1240.66,12.6A36.17,36.17,0,0,0,1229.22,11h-16.9V69.33h7.83v-23h9.43a29.9,29.9,0,0,0,11.21-2,16.41,16.41,0,0,0,7.65-6,17.64,17.64,0,0,0,2.76-10.23q0-6.41-2.8-10.19A15.42,15.42,0,0,0,1240.66,12.6Zm-.89,24.61q-3.62,2.85-11.17,2.84h-8.45V17.27h8.09q7.56,0,11.35,2.41t3.78,8.54Q1243.37,34.36,1239.77,37.21Z"/>
    <path class="a02f276e-3471-4ad5-ae34-317b8193d48b" d="M1281.37,24.93a11.24,11.24,0,0,0-6.86,2.4,20.48,20.48,0,0,0-5.51,6.58h-.18l-.71-7.92h-6.32V69.33h7.74V41.74q2.15-5.51,5.12-7.69a9.77,9.77,0,0,1,5.74-2.18,12.37,12.37,0,0,1,2.22.17,16.4,16.4,0,0,1,2,.54l1.42-6.76a9.46,9.46,0,0,0-2.09-.67A12.88,12.88,0,0,0,1281.37,24.93Z"/>
    <rect class="a02f276e-3471-4ad5-ae34-317b8193d48b" x="1292.58" y="25.99" width="7.74" height="43.34"/>
    <path class="a02f276e-3471-4ad5-ae34-317b8193d48b" d="M1296.49,7.4a4.92,4.92,0,0,0-3.56,1.38,4.71,4.71,0,0,0-1.42,3.51,4.8,4.8,0,0,0,1.42,3.6,5.35,5.35,0,0,0,7.17,0,4.85,4.85,0,0,0,1.38-3.6,4.75,4.75,0,0,0-1.38-3.51A4.88,4.88,0,0,0,1296.49,7.4Z"/>
    <path class="a02f276e-3471-4ad5-ae34-317b8193d48b" d="M1332.35,50.29q-1,3.2-2,6.45t-1.91,6.36h-.36q-1-3.12-2-6.36t-2-6.45l-8-24.3h-7.92l15.57,43.34h9L1347.92,26h-7.56Z"/>
    <path class="a02f276e-3471-4ad5-ae34-317b8193d48b" d="M1380.76,27.15a15.63,15.63,0,0,0-8.72-2.22,25.27,25.27,0,0,0-6.59.84,31.73,31.73,0,0,0-5.78,2.18,48.48,48.48,0,0,0-4.72,2.67l3,5.25a43.43,43.43,0,0,1,5.83-3.16,16.7,16.7,0,0,1,7-1.47,8.5,8.5,0,0,1,5.34,1.52,7.48,7.48,0,0,1,2.67,4,18.3,18.3,0,0,1,.71,5.2q-13.69,1.42-20.06,5.25T1353.09,58a12.84,12.84,0,0,0,1.64,6.63,10.87,10.87,0,0,0,4.54,4.27,14.24,14.24,0,0,0,6.54,1.47,16.29,16.29,0,0,0,7.56-1.83,36.2,36.2,0,0,0,6.68-4.4h.18l.71,5.16h6.32V42.9a26.19,26.19,0,0,0-1.56-9.52A12.8,12.8,0,0,0,1380.76,27.15Zm-1.25,31.5a29.82,29.82,0,0,1-5.69,4.09,12.11,12.11,0,0,1-5.79,1.43,8.7,8.7,0,0,1-5.2-1.56c-1.45-1-2.18-2.74-2.18-5.12a7.13,7.13,0,0,1,1.78-4.76,13.42,13.42,0,0,1,5.92-3.51,57.52,57.52,0,0,1,11.16-2.31Z"/>
    <path class="a02f276e-3471-4ad5-ae34-317b8193d48b" d="M1423.83,62.74a12.4,12.4,0,0,1-5.52,1.25,11.72,11.72,0,0,1-6.81-2.05,13.36,13.36,0,0,1-4.62-5.69,20.56,20.56,0,0,1-1.65-8.54,19.93,19.93,0,0,1,1.74-8.59,13.94,13.94,0,0,1,4.71-5.74,11.94,11.94,0,0,1,6.9-2.05,9.73,9.73,0,0,1,4.49,1,17.53,17.53,0,0,1,3.87,2.71l3.92-5.07a22.33,22.33,0,0,0-5.3-3.56,16.4,16.4,0,0,0-7.34-1.51,20.8,20.8,0,0,0-10.36,2.67,20.2,20.2,0,0,0-7.7,7.78,24.35,24.35,0,0,0-2.94,12.33A25.75,25.75,0,0,0,1399.94,60a19.21,19.21,0,0,0,7.29,7.74A21.05,21.05,0,0,0,1425.12,69a21.15,21.15,0,0,0,6.54-4.09l-3.29-5.16A18.9,18.9,0,0,1,1423.83,62.74Z"/>
    <path class="a02f276e-3471-4ad5-ae34-317b8193d48b" d="M1466.63,26l-7.47,23.58c-.6,2-1.19,4-1.78,6.1s-1.22,4.17-1.87,6.18h-.36q-1-3.1-2.05-6.27c-.71-2.1-1.42-4.11-2.13-6L1442.34,26h-7.92l17.35,43.34-1,3.11a17.24,17.24,0,0,1-3.6,6.5,7.8,7.8,0,0,1-6,2.58,7.4,7.4,0,0,1-1.69-.22l-1.6-.4-1.52,6c.78.23,1.58.44,2.41.62a13,13,0,0,0,2.76.27,13.78,13.78,0,0,0,7.52-2,16.86,16.86,0,0,0,5.2-5.38,42.69,42.69,0,0,0,3.74-7.79L1474.19,26Z"/>
    <path class="a02f276e-3471-4ad5-ae34-317b8193d48b" d="M732.29,101.85a36.41,36.41,0,0,0-11.44-1.64H704v58.37h7.83v-23h9.43a29.9,29.9,0,0,0,11.21-2,16.41,16.41,0,0,0,7.65-6,17.64,17.64,0,0,0,2.76-10.23q0-6.41-2.8-10.19A15.42,15.42,0,0,0,732.29,101.85Zm-.89,24.61q-3.6,2.85-11.17,2.84h-8.45V106.52h8.1q7.56,0,11.34,2.41t3.78,8.54Q735,123.61,731.4,126.46Z"/>
    <path class="a02f276e-3471-4ad5-ae34-317b8193d48b" d="M779.14,116.71a17,17,0,0,0-9.43-2.53,17.8,17.8,0,0,0-9.48,2.76,20.6,20.6,0,0,0-7.3,7.87,24.9,24.9,0,0,0-2.8,12.15,24.84,24.84,0,0,0,2.8,12.19,19.78,19.78,0,0,0,7.52,7.78,20.67,20.67,0,0,0,10.5,2.72,22.82,22.82,0,0,0,8-1.34,31.8,31.8,0,0,0,6.45-3.2l-2.76-5a25.51,25.51,0,0,1-5,2.44,16.51,16.51,0,0,1-5.7.94,14.61,14.61,0,0,1-7.21-1.83,13.37,13.37,0,0,1-5.29-5.47,17.54,17.54,0,0,1-1.94-7.38H786.7a14.28,14.28,0,0,0,.27-2c.06-.77.09-1.54.09-2.32a26.7,26.7,0,0,0-2-10.72A15.82,15.82,0,0,0,779.14,116.71Zm-21.5,16.6a17.86,17.86,0,0,1,1.61-5.83,12.76,12.76,0,0,1,4.67-5.43,11.22,11.22,0,0,1,5.88-1.73,9.46,9.46,0,0,1,7.78,3.33q2.71,3.34,2.72,9.66Z"/>
    <path class="a02f276e-3471-4ad5-ae34-317b8193d48b" d="M818.2,114.18a11.23,11.23,0,0,0-6.85,2.4,20.5,20.5,0,0,0-5.52,6.58h-.17l-.72-7.91h-6.31v43.33h7.74V131q2.13-5.52,5.11-7.7a9.84,9.84,0,0,1,5.74-2.18,11.6,11.6,0,0,1,2.23.18,16.74,16.74,0,0,1,2,.53l1.42-6.76a9.46,9.46,0,0,0-2.09-.67A12.92,12.92,0,0,0,818.2,114.18Z"/>
    <path class="a02f276e-3471-4ad5-ae34-317b8193d48b" d="M852.82,152a12.53,12.53,0,0,1-5.52,1.24,11.78,11.78,0,0,1-6.81-2,13.38,13.38,0,0,1-4.62-5.7,20.56,20.56,0,0,1-1.65-8.54,20.11,20.11,0,0,1,1.73-8.59,14,14,0,0,1,4.72-5.74,11.94,11.94,0,0,1,6.9-2,9.73,9.73,0,0,1,4.49,1,17.87,17.87,0,0,1,3.87,2.71l3.92-5.07a22.63,22.63,0,0,0-5.3-3.56,16.4,16.4,0,0,0-7.34-1.51,20.8,20.8,0,0,0-10.36,2.67,20.2,20.2,0,0,0-7.7,7.78A24.38,24.38,0,0,0,826.21,137a25.72,25.72,0,0,0,2.72,12.28,19.14,19.14,0,0,0,7.29,7.74,21.05,21.05,0,0,0,17.89,1.24,21.15,21.15,0,0,0,6.54-4.09L857.36,149A18.93,18.93,0,0,1,852.82,152Z"/>
    <path class="a02f276e-3471-4ad5-ae34-317b8193d48b" d="M895.35,116.71a17,17,0,0,0-9.43-2.53,17.85,17.85,0,0,0-9.48,2.76,20.57,20.57,0,0,0-7.29,7.87,27.76,27.76,0,0,0,0,24.34,19.64,19.64,0,0,0,7.52,7.78,20.65,20.65,0,0,0,10.5,2.72,22.77,22.77,0,0,0,8-1.34,31.8,31.8,0,0,0,6.45-3.2l-2.76-5a25.51,25.51,0,0,1-5,2.44,16.47,16.47,0,0,1-5.7.94,14.55,14.55,0,0,1-7.2-1.83,13.39,13.39,0,0,1-5.3-5.47,17.69,17.69,0,0,1-1.93-7.38h29.21a16.23,16.23,0,0,0,.26-2c.06-.77.09-1.54.09-2.32a26.7,26.7,0,0,0-2-10.72A15.82,15.82,0,0,0,895.35,116.71Zm-21.5,16.6a18.11,18.11,0,0,1,1.61-5.83,12.78,12.78,0,0,1,4.68-5.43,11.16,11.16,0,0,1,5.87-1.73,9.46,9.46,0,0,1,7.78,3.33q2.72,3.34,2.72,9.66Z"/>
    <path class="a02f276e-3471-4ad5-ae34-317b8193d48b" d="M944.74,116.89A16.72,16.72,0,0,0,928.1,116a32.31,32.31,0,0,0-6.5,4.27h-.17l-.72-5H914.4v61.48h7.74V162.14l-.27-7.47a27.83,27.83,0,0,0,6,3.64,14.73,14.73,0,0,0,6,1.34,16.59,16.59,0,0,0,9.17-2.76,19.84,19.84,0,0,0,6.9-8,28.11,28.11,0,0,0,2.62-12.63,31.68,31.68,0,0,0-2-11.66A16.55,16.55,0,0,0,944.74,116.89ZM943,145.37a13.34,13.34,0,0,1-4.36,5.78,10.32,10.32,0,0,1-6.23,2,13.77,13.77,0,0,1-4.72-1,18.57,18.57,0,0,1-5.51-3.38V126.46A26.41,26.41,0,0,1,928,122.1a11.63,11.63,0,0,1,5.34-1.43,10,10,0,0,1,6.45,2,11.35,11.35,0,0,1,3.6,5.47,26.45,26.45,0,0,1,1.16,8.23A23,23,0,0,1,943,145.37Z"/>
    <path class="a02f276e-3471-4ad5-ae34-317b8193d48b" d="M981.58,153.06a9.6,9.6,0,0,1-2.49.36q-3.66,0-5.16-2.18a10.58,10.58,0,0,1-1.52-6.1V121.56h11.66v-6.31H972.41V103.14H966l-.89,12.11-6.77.44v5.87h6.41v23.5q0,6.49,2.76,10.54t9.7,4.05a19.43,19.43,0,0,0,4.27-.49,39.6,39.6,0,0,0,3.92-1.11L984,152.26A17.29,17.29,0,0,1,981.58,153.06Z"/>
    <path class="a02f276e-3471-4ad5-ae34-317b8193d48b" d="M997.69,96.65A4.89,4.89,0,0,0,994.13,98a4.68,4.68,0,0,0-1.43,3.51,4.8,4.8,0,0,0,1.43,3.61,5,5,0,0,0,8.54-3.61,4.75,4.75,0,0,0-1.38-3.51A4.87,4.87,0,0,0,997.69,96.65Z"/>
    <rect class="a02f276e-3471-4ad5-ae34-317b8193d48b" x="993.77" y="115.25" width="7.74" height="43.34"/>
    <path class="a02f276e-3471-4ad5-ae34-317b8193d48b" d="M1042.31,116.85a19.21,19.21,0,0,0-9.83-2.67,19.52,19.52,0,0,0-17.4,10.45,25.33,25.33,0,0,0-2.8,12.33,25,25,0,0,0,2.8,12.28,19.58,19.58,0,0,0,17.4,10.41,19.21,19.21,0,0,0,9.83-2.67,20.08,20.08,0,0,0,7.43-7.74,24.72,24.72,0,0,0,2.85-12.28,25,25,0,0,0-2.85-12.33A20,20,0,0,0,1042.31,116.85Zm.8,28.65a13,13,0,0,1-4.22,5.7,11.09,11.09,0,0,1-12.82,0,13.23,13.23,0,0,1-4.27-5.7,22.16,22.16,0,0,1-1.51-8.54,22.53,22.53,0,0,1,1.51-8.59,13.19,13.19,0,0,1,4.27-5.74,11,11,0,0,1,12.82,0,13,13,0,0,1,4.22,5.74,23.14,23.14,0,0,1,1.47,8.59A22.76,22.76,0,0,1,1043.11,145.5Z"/>
    <path class="a02f276e-3471-4ad5-ae34-317b8193d48b" d="M1085.16,114.18a15.06,15.06,0,0,0-7.92,2.09,34.53,34.53,0,0,0-6.59,5.2h-.18l-.71-6.22h-6.32v43.33h7.75V127.35a36.15,36.15,0,0,1,5.74-4.85,10.43,10.43,0,0,1,5.82-1.65q4.18,0,6,2.67t1.87,8.63v26.43h7.74V131.17c0-5.51-1.05-9.73-3.15-12.63S1089.78,114.18,1085.16,114.18Z"/>
    <path class="a02f276e-3471-4ad5-ae34-317b8193d48b" d="M1132.23,136.2q-3-1.47-6-2.62-2.49-.9-4.67-1.83a12,12,0,0,1-3.56-2.22,4.36,4.36,0,0,1-1.38-3.34,5.67,5.67,0,0,1,1.91-4.23q1.92-1.81,5.92-1.82a12,12,0,0,1,5.2,1.11,26.38,26.38,0,0,1,4.59,2.8l3.64-5a25.67,25.67,0,0,0-6-3.42,19.39,19.39,0,0,0-7.65-1.47q-7,0-11,3.56a11.32,11.32,0,0,0-4,8.81,9.24,9.24,0,0,0,2,6,15.23,15.23,0,0,0,4.89,3.91,47.18,47.18,0,0,0,6,2.58c1.6.6,3.15,1.23,4.67,1.92a12.28,12.28,0,0,1,3.73,2.49,5,5,0,0,1,1.47,3.69,6,6,0,0,1-2.09,4.58q-2.08,1.92-6.27,1.92a15.73,15.73,0,0,1-6.77-1.43,30.91,30.91,0,0,1-5.87-3.65l-3.74,5a26.38,26.38,0,0,0,7.3,4.31,23.36,23.36,0,0,0,8.9,1.74,19.3,19.3,0,0,0,8.72-1.78,12.94,12.94,0,0,0,5.38-4.72,12,12,0,0,0,1.83-6.49,10,10,0,0,0-2-6.54A14.83,14.83,0,0,0,1132.23,136.2Z"/>
    <path class="a02f276e-3471-4ad5-ae34-317b8193d48b" d="M118.34,101.37a17.87,17.87,0,1,0-26.43,15.68L79.14,159.4h42.67L109,117.05A17.86,17.86,0,0,0,118.34,101.37Z"/>
    <path class="a02f276e-3471-4ad5-ae34-317b8193d48b" d="M100.48,42.27h10.67v-8H100.48a67.06,67.06,0,0,0-67.06,67.06v1.72h8v-1.72h0A59.16,59.16,0,0,1,100.48,42.27Z"/>
    <path class="a02f276e-3471-4ad5-ae34-317b8193d48b" d="M111.15,66.56v-8H100.48A42.78,42.78,0,0,0,57.7,101.36v1.72h8v-1.72a34.85,34.85,0,0,1,34.81-34.8Z"/>
    <path class="a02f276e-3471-4ad5-ae34-317b8193d48b" d="M100.48,17.39v-.16h10.67v-8H100.48v.17A91.94,91.94,0,0,0,8.54,101.36h0v1.72h8v-1.72A84.07,84.07,0,0,1,100.48,17.39Z"/>
    <polygon class="a02f276e-3471-4ad5-ae34-317b8193d48b" points="275.3 9.82 158.37 9.82 158.37 35.85 200.76 35.85 200.76 157.65 232.68 157.65 232.68 35.85 275.3 35.85 275.3 9.82"/>
    <path class="a02f276e-3471-4ad5-ae34-317b8193d48b" d="M314.44,9.82,266,157.64H298.6l10.28-36.89h47.8l10.17,36.89h33.77L352.41,9.82Zm1.13,86.93,4.22-15.17q3.27-11.31,6.41-23.77t5.94-24.22h.93q3.26,11.77,6.41,24.22t6.4,23.77l4.18,15.17Z"/>
    <path class="a02f276e-3471-4ad5-ae34-317b8193d48b" d="M503.58,14.24A97,97,0,0,0,473.3,9.82H422.52V157.64h31.91V106h19.8a81.17,81.17,0,0,0,29.7-5.21,46.23,46.23,0,0,0,21.31-16.18q7.92-11,7.92-28,0-17.66-8-27.84A44.1,44.1,0,0,0,503.58,14.24Zm-9,60.89q-7.33,6.23-22.48,6.23h-17.7V34.5H471.2q15.15,0,22.95,5t7.8,17.2Q502,68.91,494.61,75.13Z"/>
    <path class="a02f276e-3471-4ad5-ae34-317b8193d48b" d="M632.16,14.24a97,97,0,0,0-30.28-4.42H551.1V157.64H583V106h19.8a81.17,81.17,0,0,0,29.7-5.21,46.31,46.31,0,0,0,21.32-16.18q7.9-11,7.91-28,0-17.66-8-27.84A44.1,44.1,0,0,0,632.16,14.24Zm-9,60.89q-7.34,6.23-22.47,6.23H583V34.5h16.77q15.15,0,23,5t7.8,17.2Q630.53,68.91,623.19,75.13Z"/>
  </g>
</svg>
